<?xml version="1.0" encoding="UTF-8" standalone="no"?>
<svg xmlns:rdf="http://www.w3.org/1999/02/22-rdf-syntax-ns#" xmlns="http://www.w3.org/2000/svg" height="973.75" width="973.75" version="1.1" xmlns:cc="http://creativecommons.org/ns#" xmlns:dc="http://purl.org/dc/elements/1.1/" viewBox="0 0 779 779">
<path d="m308.2 5.44c25.92-3.53 52.9 8.22 67.17 30.24 5.17-1.09 8.68-9.33 14.48-10.35 5.08 2.27 8.99 9 13.78 10.34 14.55-22.81 42.96-34.39 69.38-29.65 22.73 5.88 42.31 22.86 51.44 44.49 1.25 2.64 3.21 6.89 6.72 4.68 21.69-9.16 47.15-8.66 68.03 2.6 23.56 14.64 37.19 44.68 29.88 71.97 5.63 1.85 12.26-0.72 17.55 2.61 3.32 5.28 0.76 11.92 2.61 17.55 27.31-7.34 57.28 6.36 71.97 29.88 11.15 20.91 11.88 46.35 2.6 68.03-2.36 5.82 6.53 6.81 10.07 9.28 20.06 10.46 35.75 30.27 39.74 52.66 3.21 25.44-8.86 51.61-30.3 65.6 1.1 5.17 9.32 8.68 10.35 14.48-2.27 5.08-9 8.99-10.34 13.78 22.81 14.55 34.38 42.96 29.65 69.38-5.88 22.73-22.86 42.31-44.49 51.44-2.65 1.25-6.9 3.21-4.68 6.72 9.16 21.69 8.65 47.15-2.6 68.03-14.64 23.56-44.68 37.19-71.97 29.88-1.85 5.63 0.71 12.26-2.61 17.55-5.29 3.32-11.92 0.76-17.55 2.61 7.34 27.31-6.36 57.28-29.88 71.97-20.91 11.15-46.35 11.88-68.03 2.6-5.82-2.36-6.81 6.53-9.28 10.07-10.46 20.06-30.27 35.75-52.66 39.74-25.44 3.21-51.61-8.86-65.6-30.3-5.17 1.1-8.69 9.32-14.48 10.35-5.09-2.27-9-9-13.78-10.34-14.55 22.81-42.96 34.38-69.38 29.65-22.73-5.88-42.31-22.86-51.44-44.49-1.25-2.65-3.22-6.9-6.72-4.68-21.69 9.16-47.15 8.65-68.03-2.6-23.56-14.64-37.2-44.68-29.88-71.97-5.63-1.85-12.27 0.71-17.55-2.61-3.33-5.29-0.76-11.92-2.61-17.55-27.31 7.34-57.28-6.36-71.97-29.88-11.15-20.91-11.88-46.35-2.6-68.03 2.36-5.82-6.53-6.81-10.07-9.28-20.06-10.46-35.75-30.27-39.74-52.66-3.21-25.44 8.86-51.61 30.3-65.6-1.09-5.17-9.33-8.69-10.35-14.48 2.27-5.09 9-9 10.34-13.78-22.81-14.55-34.39-42.96-29.65-69.38 5.88-22.73 22.86-42.31 44.49-51.44 2.64-1.25 6.89-3.22 4.68-6.72-9.16-21.69-8.66-47.15 2.6-68.03 14.64-23.56 44.68-37.2 71.97-29.88 1.85-5.63-0.72-12.27 2.61-17.55 5.28-3.33 11.92-0.76 17.55-2.61-7.34-27.31 6.36-57.28 29.88-71.97 21.16-11.36 46.86-11.76 68.76-2.38 5.57 1.15 6.25-7.42 8.88-10.96 10.32-19.43 29.31-34.1 50.76-39.01m6.04 6.95c-23.78 3.45-46.19 17.98-57.2 39.5-3.56 6.02 4.62 8.61 8.39 11.72 22.89 15.99 38.59 47.66 26.77 74.73-3.96 9.34-15.42 4.36-21.33-0.22-24.5-17.66-28.58-51.15-22.69-78.26-43.27-22.25-109.56 20.01-95.39 71.13 21.6 1.85 39.52 15.22 54.28 29.99 18.76-3.16 34.05-28.58 22.3-46.21-5.76-17.09-31.26-24.12-43.83-10.06-6 3.22-0.33 15.35-6.09 17.17-0.62-10.71 2.92-23.21 13.27-28.23 13.96-6.43 29.59 2.69 36.37 15.23 15.09 19.82 3.86 48.89-16.95 59.19 11.36 16.66 20.48 38.74 14.03 58.93-20.22 4.4-41.62-3.23-58.1-14.86-8.97 17.02-29.82 28.79-49.03 21.98-13.84-4.95-29.09-17.36-27.48-33.74 0.94-14.76 17.1-22.6 30.35-21-1.61 6.36-12.79 0.52-16.73 5.72-15.6 13.32-6.53 40.79 12.28 45.61 17.38 9 39.67-5.94 43.77-23.03-14.33-15.29-28.73-32.87-30.22-54.89-51.15-14.06-93.5 52.11-71.13 95.38 18.93-3.44 41.12-4.21 58.76 6.09 11.83 6.98 25.82 18.18 24.89 33.45-7.95 8.83-21.76 9.38-32.79 7.87-23.82-2.73-41.61-21.64-54.96-39.5-46.03 15.93-61.94 91.51-16.85 117.76 17.6-13.17 39.75-17.46 61.35-17.23 4.76-11.85 5.06-25.91-1.85-37.03-11.5-15.6-38.92-18.93-50.44-1.54-8.18 9.8-1.98 21.85 4.93 29.95-14.07-5.69-17.55-28.01-5.6-37.7 12.22-10.55 30.84-8.02 44.02-0.62 15.82 9.56 22.24 31.18 16.19 47.89 19.23 5.03 41.64 13.59 51.81 32.26-11.2 18-32.47 26.75-51.81 31.62 5.4 15.27 0.85 34.26-12.05 45.05-14.01 10.72-37.18 14.12-50.11 0.14-9.82-10.22-5.48-30.41 7.56-35.6-5.44 7.72-12.96 16.65-6.85 26.72 9.88 20.78 40.99 18.45 52.75 1 6.96-10.94 5.83-24.72 1.45-36.34-21.58-0.02-43.76-3.95-61.35-17.26-44.79 26.36-29.25 99.81 15.47 117.59 4.46 0.77 5.88-5.23 8.37-8 15.83-23.55 48.01-39.95 75.57-27.94 9.34 3.96 4.36 15.42-0.22 21.33-17.66 24.5-51.15 28.58-78.26 22.69-22.25 43.27 20.01 109.56 71.13 95.39 1.85-21.6 15.22-39.52 29.99-54.28-3.16-18.76-28.58-34.05-46.21-22.3-17.09 5.76-24.12 31.26-10.06 43.83 3.22 5.99 15.35 0.33 17.17 6.09-10.71 0.62-23.21-2.92-28.23-13.27-6.43-13.97 2.69-29.59 15.23-36.37 19.82-15.09 48.89-3.86 59.19 16.95 16.66-11.36 38.74-20.48 58.93-14.03 4.4 20.22-3.23 41.62-14.86 58.1 17.02 8.97 28.79 29.81 21.98 49.03-4.95 13.83-17.36 29.09-33.74 27.48-14.76-0.94-22.6-17.1-21-30.35 6.36 1.61 0.52 12.77 5.72 16.73 13.32 15.59 40.79 6.53 45.61-12.28 9-17.38-5.94-39.67-23.03-43.77-15.29 14.33-32.87 28.72-54.89 30.22-14.06 51.15 52.11 93.5 95.38 71.13-3.44-18.93-4.21-41.12 6.09-58.76 6.98-11.83 18.18-25.82 33.45-24.89 8.83 7.95 9.38 21.76 7.87 32.79-2.73 23.82-21.64 41.61-39.5 54.96 15.93 46.03 91.51 61.94 117.76 16.85-13.17-17.6-17.46-39.76-17.23-61.35-11.85-4.76-25.91-5.06-37.03 1.85-15.6 11.5-18.93 38.92-1.54 50.44 9.8 8.18 21.85 1.98 29.95-4.93-5.69 14.07-28.01 17.55-37.7 5.6-10.55-12.22-8.02-30.84-0.62-44.02 9.56-15.82 31.18-22.24 47.89-16.19 5.03-19.23 13.59-41.64 32.26-51.81 18 11.2 26.75 32.47 31.62 51.81 15.27-5.4 34.26-0.85 45.05 12.05 10.72 14.01 14.12 37.18 0.14 50.11-10.22 9.82-30.41 5.48-35.6-7.56 7.72 5.44 16.65 12.95 26.72 6.85 20.78-9.88 18.45-40.99 1-52.75-10.94-6.96-24.72-5.84-36.34-1.45-0.02 21.58-3.95 43.76-17.26 61.35 26.36 44.78 99.81 29.25 117.59-15.47 0.77-4.47-5.23-5.89-8-8.37-23.55-15.83-39.95-48.01-27.94-75.57 3.96-9.35 15.42-4.36 21.33 0.22 24.5 17.66 28.58 51.15 22.69 78.26 43.27 22.25 109.56-20.01 95.39-71.13-21.6-1.85-39.52-15.22-54.28-29.99-18.76 3.16-34.05 28.58-22.3 46.21 5.76 17.09 31.26 24.12 43.83 10.06 5.99-3.23 0.33-15.35 6.09-17.17 3.14 17.51-13.21 36.48-31.45 28.89-31.8-11.73-32.6-61.09-1.71-74.54-9.9-16.52-19.49-38.16-14.39-58.65 20.14-6.31 42.28 2.62 58.93 14.04 8.97-17.02 29.81-28.8 49.03-21.98 13.83 4.95 29.09 17.36 27.48 33.74-0.94 14.76-17.1 22.6-30.35 21 1.61-6.36 12.77-0.54 16.73-5.72 15.59-13.32 6.53-40.79-12.28-45.61-17.38-9-39.67 5.94-43.77 23.03 14.33 15.29 28.72 32.86 30.22 54.89 51.15 14.06 93.5-52.11 71.13-95.38-18.93 3.44-41.12 4.21-58.76-6.09-11.83-6.98-25.82-18.18-24.89-33.45 7.95-8.83 21.76-9.39 32.79-7.87 23.82 2.73 41.61 21.64 54.96 39.5 46.03-15.93 61.94-91.51 16.85-117.76-17.6 13.17-39.76 17.46-61.35 17.23-4.76 11.85-5.06 25.91 1.85 37.03 11.5 15.6 38.92 18.92 50.44 1.54 8.18-9.8 1.98-21.85-4.93-29.95 14.07 5.69 17.55 28 5.6 37.7-12.22 10.55-30.84 8.02-44.02 0.62-15.82-9.56-22.24-31.18-16.19-47.89-19.23-5.03-41.64-13.59-51.81-32.26 11.2-18 32.47-26.75 51.81-31.62-5.4-15.27-0.85-34.26 12.05-45.05 14.01-10.72 37.18-14.12 50.11-0.14 9.82 10.21 5.48 30.41-7.56 35.6 5.44-7.73 12.95-16.65 6.85-26.72-9.88-20.78-40.99-18.45-52.75-1-6.96 10.94-5.84 24.72-1.45 36.34 21.58 0.02 43.76 3.95 61.35 17.26 44.78-26.36 29.25-99.81-15.47-117.59-4.47-0.78-5.89 5.23-8.37 8-15.83 23.55-48.01 39.95-75.57 27.94-9.35-3.96-4.36-15.42 0.22-21.33 17.66-24.5 51.15-28.58 78.26-22.69 22.25-43.27-20.01-109.56-71.13-95.39-1.85 21.6-15.22 39.52-29.99 54.28 3.16 18.76 28.58 34.05 46.21 22.3 17.09-5.76 24.12-31.26 10.06-43.83-3.23-6-15.35-0.33-17.17-6.09 10.7-0.62 23.21 2.92 28.23 13.27 6.43 13.96-2.69 29.59-15.23 36.37-19.82 15.09-48.89 3.86-59.19-16.95-16.5 11.57-37.83 19.42-58.11 14.86-6.31-20.15 2.62-42.28 14.04-58.93-17.02-8.97-28.8-29.82-21.98-49.03 4.95-13.84 17.36-29.09 33.74-27.48 14.76 0.94 22.6 17.1 21 30.35-6.36-1.61-0.54-12.79-5.72-16.73-13.32-15.6-40.79-6.53-45.61 12.28-9 17.38 5.94 39.67 23.03 43.77 15.29-14.33 32.86-28.73 54.89-30.22 14.06-51.15-52.11-93.5-95.38-71.13 3.44 18.93 4.21 41.12-6.09 58.76-6.98 11.83-18.18 25.82-33.45 24.89-8.83-7.95-9.39-21.76-7.87-32.79 2.73-23.82 21.64-41.61 39.5-54.96-15.93-46.03-91.51-61.94-117.76-16.85 13.17 17.6 17.46 39.75 17.23 61.35 11.85 4.76 25.91 5.06 37.03-1.85 15.6-11.5 18.92-38.92 1.54-50.44-9.8-8.18-21.85-1.98-29.95 4.93 5.69-14.07 28-17.55 37.7-5.6 10.55 12.22 8.02 30.84 0.62 44.02-9.56 15.82-31.18 22.24-47.89 16.19-5.03 19.23-13.59 41.64-32.26 51.81-18-11.2-26.75-32.47-31.62-51.81-15.04 5.29-33.74 1.02-44.58-11.53-11.23-13.93-14.74-37.51-0.61-50.63 10.21-9.82 30.41-5.48 35.6 7.56-7.73-5.44-16.65-12.96-26.72-6.85-20.78 9.88-18.45 40.99-1 52.75 10.94 6.96 24.72 5.83 36.34 1.45 0.02-21.58 3.95-43.76 17.26-61.35-11.45-20.9-36.79-29.39-59.61-26.54m74.23 17.04c-4.16 2.56-8.24 5.81-11.05 9.79 11.63 22.44 5.26 53.12-16.32 67.11 3.37 16.34 10.01 33.38 24.76 42.76 1.97 2.17 5.3 2.17 7.28 0 14.56-9.54 21.74-26.26 24.66-42.76-21.66-13.89-27.81-44.96-16.09-67.14-3.59-3.77-7.85-9.52-13.24-9.76m-14.13 13.78c-11.28 15.15-16.53 36.94-13.48 54.7 18.99-8.12 25.86-40 13.48-54.7m29.12 0.09c-10.29 17.56-4.16 45.74 14.61 54.61 2.59-16.9-1.69-42.66-14.61-54.61m-149.99 16.89c-4.67 1.29-2.89 8.03-3.78 11.42-1.49 26.55 9.33 58.34 36.14 68.39 14.02-28.55-6.15-67.15-32.36-79.81m269 0.13c-23.57 17.03-43.4 50.92-29.31 79.7 25.95-9.81 37.36-40.33 36.03-66.28-0.38-4.43 1.14-15.79-6.72-13.42m-381.87 73.01c-10.08-1.94-7.7 12.11-6.6 17.48 23.7 7.51 39.82 32.97 35.33 57.65 13.77 11.1 33.83 18.54 51.4 12.24 6.39-17.7-1.3-37.37-12.15-51.67-23.6 4.93-49.01-10.2-56.71-32.84-1.1-5.11-7.71-2.71-11.27-2.86m489.06-0.15c-9.3 22.54-32.98 41.48-59.12 36.15-11.11 13.77-18.54 33.83-12.24 51.4 17.7 6.39 37.37-1.3 51.67-12.15-5.24-24.7 11.48-50.25 35.03-57.77 5.05-11.72-2.49-21.82-15.34-17.63m-474.15 0.92c1.32 19.03 28.83 36.65 48.51 28.93-11.76-14.8-29.55-26.5-48.51-28.93m463.26 0.52c-16.97 4.44-33.15 14.45-43.77 28.41 20.35 6.88 42.91-7.82 49.62-27.28 1.12-3.48-5.54-0.12-5.85-1.13m-483.8 19.69c-0.29 18.49 13.27 37.92 28.06 49.69 6.93-20.48-8.13-43.7-28.06-49.69m508.31 0.02c-19.44 6.79-34.26 29.28-27.31 49.69 14.42-11.65 29.67-32.39 27.31-49.69m-565.97 95.3c-6.01-0.15-21.95-0.97-15.78 8.78 17.5 22.35 50.41 41.35 78.49 27.43-9.29-24.86-37.81-36.2-62.71-36.21m623.79-0.03c-24.7 0.29-52.98 11.49-62.1 36.23 28.73 14.09 62.7-5.76 79.68-29.32 1.91-9.32-12.62-6.12-17.58-6.91m-620.44 110.9c-13.39 1.7-27.63 5.39-37.8 14.43 17.24 11.33 44.73 4.81 55.15-13.16-2.14-5.03-12.61-0.26-17.35-1.27m600.66-0.53c6.79 19.76 37.87 26.36 54.9 14.99-14.82-12.31-35.96-15.99-54.9-14.99m-574.99 1.23c-13.05 20.32-40.98 26.87-62.84 18.19-6.37-5.44-11.07 5.37-14.33 9.75 1.6 5.01 6 9.23 10.06 12.44 22.44-11.63 53.12-5.26 67.11 16.32 16.34-3.37 33.38-10.01 42.76-24.76 2.17-1.98 2.17-5.3 0-7.28-9.54-14.56-26.26-21.74-42.76-24.66m564.72 0.07c-16.72 4.11-35.97 11.55-42.81 28.54 8.19 16.68 26.94 24.91 44.43 27.99 13.05-20.32 40.98-26.87 62.84-18.19 6.37 5.44 11.07-5.37 14.33-9.75-1.6-5.01-6-9.23-10.06-12.44-23.44 12.77-52.98 2.83-68.73-16.15m-611.03 37.42c-5.78 0.94-12.79 0.96-17.24 5.35 14.75 12.11 37.3 16.98 55.13 14.1-5.8-13.72-23.37-20.49-37.89-19.45m652.95 0c-12.56 1.1-28.27 7.58-31.72 20.23 18.93 0.72 40.11-2.33 54.89-14.85-6.15-5.36-15.33-5.59-23.17-5.38m-597.43 89.8c-22.02 2.56-41.72 15.86-54.85 33.34-1.95 2.86 0.26 7.04 3.8 6.85 28.43 3.83 64.35-6.36 75.51-35.51-7.23-4.49-16.16-5.16-24.46-4.68m537.39 0.2c-4.84 0.66-9.79 1.78-13.95 4.47 11.76 30.03 49.56 40.48 78.75 34.62 3.53-4.32-1.2-8.5-4.08-11.48-14.82-17.18-37.49-29.88-60.72-27.61m-453.09 67.88c-11.13 1.82-21.89 6.95-30.81 13.85 5.24 24.7-11.48 50.25-35.03 57.77-5.92 12.48 4.32 22.72 16.81 16.81 7.51-23.7 32.97-39.82 57.65-35.33 11.15-13.74 18.05-33.17 12.65-50.96-6.22-3.69-14.29-2.66-21.27-2.14m365.12 0.1c-2.33 0.59-5.43 0.01-7.07 2.09-5.54 17.86 1.65 36.96 12.53 51.21 24.7-5.24 50.25 11.48 57.77 35.03 12.48 5.91 22.72-4.33 16.81-16.81-23.7-7.52-39.82-32.97-35.33-57.65-12.17-9.68-28.66-16.69-44.71-13.87m-402.59 18.67c-14.2 12.19-26.88 29.91-27.88 48.86 19.51-3.24 36.76-30.98 27.88-48.86m453.6-0.34c-7 20.36 8.49 44.91 28.81 49.46-1.76-19.38-13.78-37.58-28.81-49.46m-427.5 39.44c-15.52 2.77-30.64 14.82-33.93 30.34 19.38-1.76 37.57-13.78 49.46-28.81-4.7-2.61-10.41-1.35-15.53-1.53m390.91 0.15c-8.07-0.01-0.85 6.41 2.19 8.85 12.07 10.12 27.13 21.78 43.28 20.62-6.02-18.59-25.69-32.56-45.47-29.47m-191.92 14.21c-15.43 9.44-23.32 26.7-26.26 43.87 20.32 13.05 26.87 40.98 18.19 62.84-5.44 6.37 5.37 11.07 9.75 14.33 5.01-1.6 9.23-6 12.44-10.06-11.63-22.44-5.26-53.12 16.32-67.11-3.67-16.87-11.94-40.84-30.44-43.87m-103.08 10.59c-28.91 12.88-38.92 49.44-33.16 78.34 4.88 3.79 9.15-2.07 12.5-5.05 18.7-16.5 32.55-43.7 24.5-68.82-0.98-1.56-1.32-5.8-3.84-4.47m208.79-0.39c-13.43 26.7 3.72 58.69 24.69 76.09 2.37 3.58 9.65 6.24 10.62 0.26 4.31-28.62-5.92-65.07-35.31-76.35m-133.09 42.25c-0.73 18.93 2.33 40.11 14.85 54.89 11.47-16.89 4.75-47.77-14.85-54.89m56.39-0.05c-17.35 11.24-23.55 37.63-12.43 55.02 11.66-14.26 18.91-40.55 12.43-55.02z"/>
</svg>
