<?xml version="1.0" encoding="UTF-8" standalone="no"?>
<svg xmlns:rdf="http://www.w3.org/1999/02/22-rdf-syntax-ns#" xmlns="http://www.w3.org/2000/svg" height="414" viewBox="0 0 793 414" width="793" version="1.1" xmlns:cc="http://creativecommons.org/ns#" xmlns:dc="http://purl.org/dc/elements/1.1/">
<path d="m392 411.36c-24.635-3.5969-35.349-16.564-27.289-33.026 8.1848-16.716 53.25-31.507 70.192-23.038 4.2453 2.122 27.086-2.833 32.007-6.9435 1.0645-0.88923-3.5927-4.3905-8.2394-6.1943-19.899-7.7248-37.261-4.5276-86.171 15.868-58.621 24.445-73.527 27.709-89.5 19.595l-4.5-2.2858-7.0359 3.3399c-22.082 10.482-35.338 9.1042-32.654-3.3948 2.0867-9.72 17.456-19.72 36.522-23.763 1.5574-0.33026 5.8526-3.3952 9.5449-6.8109 3.6922-3.4157 8.043-7.2095 9.6683-8.4305 2.8434-2.1362 2.8839-2.2764 1.0701-3.709-7.8746-6.2198-23.839-1.3386-54.902 16.786-62.57 36.52-105.92 46.77-147.21 34.81-51.363-14.86-76.858-64.05-53.568-103.34l2.1799-3.6772-5.3058-3.9671c-45.121-33.74-41.27-99.79 6.944-119.12 3.9198-1.5712 3.9575-1.9791 0.66582-7.1935-24.624-39.01 3.292-93.542 52.584-102.72 28.721-5.3501 49.33-3.2382 90.308 9.2542 14.581 4.4452 14.311 4.4487 21.633-0.28393 18.493-11.953 48.403-16.396 84.163-12.503l5.6041 0.6101 0.53132-6.6191c1.83-22.827 38.79-37.843 75.76-30.786 35.87 6.848 54.56 35.666 40.53 62.519-4.35 8.327-4.74 7.868 8.97 10.683 59.08 12.134 113.09 4.9882 123.41-16.329 3.4247-7.0745 1.8264-22.991-2.1504-21.415-0.6905 0.27357-4.4054 1.7161-8.2554 3.2057-3.85 1.4895-9.025 3.5176-11.5 4.5068-26.6 10.631-64.8 7.97-71.49-4.982-14.45-27.937 53.4-37.667 87.38-12.532l6.3946 4.7299 14.605-7.0377c41.44-19.966 68.56-25.178 94.15-18.094 32 8.858 53.49 37.436 52.88 70.314l-0.19 10.109 9.3835 0.11273c72.448 0.8704 95.258 99.782 32.494 140.91l-2.6125 1.7118 5.2508 5.719c37.516 40.862 19.947 101.72-34.487 119.45-10.677 3.4791-18.68 5.5838-23.578 6.201-5.7196 0.72068-5.9754 0.90848-11.052 8.1139-12.644 17.946-51.66 29.823-60.877 18.531-5.7505-7.0453-0.84552-12.851 16.962-20.075 3.2252-1.3085 21.628-5.4384 34.283-7.6936 12.633-2.2512 12.5-2.1928 12.5-5.5151 0-11.613-20.824-19.041-33.821-12.066-1.2766 0.68515-4.8766 1.9084-8 2.7183-3.1234 0.80991-17.154 7.2124-31.179 14.228-27.543 13.777-27.878 13.925-38.922 17.215-11.051 3.292-23.761 2.0702-33.518-3.222-2.8356-1.5381-3.1824-1.4726-9.8082 1.8527-21.122 10.601-39.22 7.376-32.646-5.8168 3.3147-6.6517 10.708-11.349 23.222-14.753 6.0936-1.6579 6.5104-2.0505 8.6222-8.1223 2.3579-6.7792 2.7845-6.523-10.451-6.2766-12.325 0.22942-17.214 0.84223-35.679 4.4716-13.613 2.6757-13.128 2.3214-11.691 8.5503 4.4275 19.181-19.38 45.488-47.131 52.078-12.451 2.957-28.129 4.5423-35 3.539zm28-8.1764c31.707-8.4256 54.555-28.46 51.865-45.478-1.1423-7.2264-1.1747-7.2316-15.451-2.4939l-12.91 4.29-0.0444 6c-0.10485 14.167-15.887 26.5-33.91 26.5-23.239 0-9.571-19.557 20.954-29.983 11.376-3.8854-2.3313-8.5127-17.903-6.0436-46.165 7.32-65.104 37.744-30.597 49.151 4.5875 1.5165 29.849 0.22824 38-1.9379zm235.1-15.161c23.231-7.2617 39.112-24.43 19.893-21.506-35.314 5.3731-50.546 11.132-49.793 18.825 0.64549 6.5899 13.66 7.7567 29.9 2.6806zm-232.31-1.2458c11.232-4.1413 18.512-12.118 18.014-19.737-0.45401-6.9411-0.48805-6.9363-22.705 3.1656-25.632 11.655-21.506 26.23 4.6913 16.571zm-160.08-7.1835c12.693-4.2346 14.413-5.6201 12.753-10.275-0.74955-2.1018-1.3826-5.5089-1.4067-7.5714-0.0519-4.4303 0.51526-4.3562-9.5439-1.2484-13.654 4.2184-20.303 8.533-23.031 14.946-3.4257 8.0517 4.7437 9.6482 21.229 4.1486zm259.79-0.28c5.0859-1.6128 14.5-6.0014 14.5-6.7594 0-8.5807-9.393-11.989-20.28-7.3596-23.441 9.969-18.58 21.844 5.7796 14.119zm-369.11 0.0278c12.055-1.6001 35.145-8.283 43.114-11.793 1.65-0.72674 4.0987-1.6541 5.4416-2.0608 4.2828-1.297 26.193-12.209 37.058-18.456 33.561-19.296 46.723-23.093 57.501-16.588l3.7981 2.2922 9.1439-4.3315c14.057-6.6589 29.297-9.8421 34.9-7.2894 13.169 6.0001-4.855 22.304-31.843 28.805-11.036 2.6582-13.5 3.6473-13.5 5.4187 0 1.833-11.038 13.813-14.37 15.596-6.2098 3.3234-0.17534 6.6162 11.87 6.4773 8.2498-0.0952 17.399-2.5968 29.277-8.0049 2.9025-1.3215 5.4881-2.4028 5.7458-2.4028 0.25764 0 3.9578-1.6182 8.2227-3.596 7.2448-3.3598 16.657-7.3035 27.254-11.419 2.475-0.96126 9-3.5284 14.5-5.7049 42.407-16.781 65.223-17.001 87.017-0.84073 1.809 1.3414 2.6871 1.286 8.5-0.53551 15.196-4.762 27.864-6.8215 46.469-7.5549l16.986-0.66958 5.8425-4.2513c14.946-10.875 40.401-11.868 45.197-1.762 4.2028 8.8568-4.0679 16.758-23.512 22.46-6.9634 2.0423-9.8838 3.3987-10.937 5.0801-0.79052 1.2616-4.2353 5.0868-7.655 8.5003-6.8084 6.7961-6.7978 7.528 0.13167 9.0704 11.107 2.4722 24.875-1.3171 47.339-13.029 35.465-18.49 45.699-22.86 60.262-25.732 15.169-2.9913 31.333 5.1391 32.602 16.399 0.66249 5.8776 1.8688 5.9281 17.304 0.72396 33.02-11.133 51.023-26.349 59.324-50.138 8.1919-23.475 2.8916-46.13-15.345-65.587l-4.1172-4.3927-7.1286 3.5899c-12.934 6.5134-26.787 9.0278-34.93 6.3401-3.9754-1.312-4.1384-1.2754-6.0598 1.3623-12.077 16.58-40.995 4.6487-36.623-15.11 4.9121-22.202 50.55-24.27 78.967-3.5772 9.3296 6.7937 26.773-10.621 34.215-34.158 15.448-48.859-5.7277-91.917-48.662-98.947-15.154-2.4813-17.427-1.711-20.98 7.11-6.006 14.912-22.82 32.282-35.206 36.37-3.3407 1.1025-3.5003 1.3694-3.4854 5.8279 0.11025 32.978 36.426 52.806 58.269 31.814 16.885-16.227 8.9728-40.711-11.035-34.147-1.6785 0.55069-2.25 0.34726-2.25-0.80088 0-4.4569 13.76-4.6402 19.503-0.2598 14.234 10.857 8.6462 36.663-9.6423 44.53-26.124 11.238-52.909-5.2538-57.075-35.142-0.63801-4.5773-1.2582-8.4672-1.3781-8.6442-0.11995-0.17701-2.3983 0.46367-5.0629 1.4237-45.37 16.347-89.556-30.274-64.22-67.759 11.888-17.588 43.517-22.344 57.253-8.6085 4.067 4.067 0.55923 5.0195-4.8833 1.326-5.1012-3.4617-13.371-4.9359-23.388-4.1691-39.104 2.9932-43.578 47.282-6.82 67.523 17.286 9.5188 46.455 9.7963 49.209 0.46804 5.1863-17.565 22.698-35.277 39.127-39.573 4.9-1.29 3.74-23.847-1.91-37.32-13.98-33.333-62.89-47.208-110.7-31.402-16.643 5.5022-42.001 14.716-42 15.261 0.00028 0.07778 0.94375 2.6164 2.0966 5.6414 5.2257 13.712-4.6348 30.712-23.418 40.375-18.024 9.2722-57.391 10.5-84.679 2.6412-3.575-1.0296-12.903-3.5293-20.729-5.5548l-14.229-3.6828-6.0769 5.8607c-16.81 16.215-51.54 24.831-77.46 19.211-1.65-0.35773-8.85-1.8591-16-3.3363s-16.825-3.8617-21.5-5.2988c-10.779-3.3137-15.736-3.2785-24.5 0.17409-39.61 15.601-74.56 3.792-68.53-23.165 1.53-6.824 2.69-6.079-17.97-11.544-76.21-20.16-123.77-6.149-136.43 40.194-5.2956 19.378 3.2817 53.771 12.871 51.611 21.668-4.8794 46.514 5.2942 55.797 22.847l3.26 6.17 6.5-0.06c18.065-0.15493 43.688-12.16 50.563-22.456 10.816-15.613 6.3476-35.475-5.4471-47.988-24.203-23.383-78.721-6.3415-64.991 20.316 9.0465 17.565 45.167 15.277 43.671-2.7662-0.37396-4.5094-0.21487-5.3124 0.87355-4.4091 1.9096 1.5848 1.7 11.054-0.32264 14.578-10.884 18.964-48.169 9.4836-48.325-12.287-0.20798-29.058 46.429-41.5 71.569-19.093 33.395 29.764 8.4704 73.781-43.897 77.523l-8.9364 0.63857-0.16149 7.5c-0.57995 26.933-25.489 44.726-52.537 37.528-22.06-5.8707-26.766-32.219-7.8843-44.138 5.8127-3.6694 6.0564-1.9793 0.41045 2.8467-22.485 19.22 6.6451 49.558 35.863 37.349 14.548-6.08 25.768-42.59 13.098-42.59-2.7988 0-19.517-5.08-25.768-7.8298-7.1042-3.1253-14.622-8.21-21.357-14.446l-6.0397-5.5917-6.4271 3.1836c-36.303 17.99-41.562 75.74-9.828 107.94 9.0064 9.1388 10.695 9.5377 16.092 3.8018 35.792-38.04 101.26-27.435 89.897 14.563-4.6907 17.344-43.111 21.294-43.108 4.4318 0.000235-1.3237-2.057-1.547-14.25-1.547-13.943 0-14.493-0.0836-25.501-3.8717-13.245-4.5581-12.794-4.7208-17.128 6.1656-6.9689 13.267-5.5248 28.475-2.1214 39.468 19.481 48.646 62.672 58.204 116.39 51.075zm131.31-11.24c4.35-3.15 11.3-11.12 11.3-12.95 0-1.5262-2.0589-1.3996-11 0.67631l-7.5 1.7413-0.30507 5.2988c-0.48303 8.3898 1.3694 9.6836 7.5029 5.2404zm260.96-0.96391c2.6619-2.123 5.6938-5.3426 6.7376-7.1546l1.8978-3.2946-3.1593 0.63186c-1.7376 0.34752-6.1264 1.1786-9.753 1.8468-7.7858 1.4346-8.4952 2.5522-4.9857 7.8553 3.2271 4.8765 3.2917 4.8773 9.2625 0.11522zm1.6335-15.322c7.9314-1.3138 8.6214-3.1385 2.3454-6.2031-9.1038-4.4456-13.465-3.1954-15.67 4.4917-0.99456 3.4678-0.2453 4.1997 3.5236 3.4416 1.6538-0.33265 6.0641-1.1112 9.8006-1.7302zm-255.12-3.9918c6.83-1.51 7.83-2.34 7.83-6.45 0-4.2656-1.6949-4.3777-7.3198-0.48379-10.23 7.0818-10.378 9.108-0.50647 6.9322zm274.35-0.76566c17.158-4.7681 26.109-12.981 19.823-18.188-5.65-4.68-42.34 3.23-42.34 9.13 0 0.50108 1.9125 1.7736 4.25 2.8278s5.5717 3.3253 7.1871 5.0468c3.475 3.7032 2.4402 3.5921 11.083 1.1904zm-248.64-4.66c18.04-4.05 28.12-9.6 28.12-15.5 0-10.503-43.382 1.7227-43.582 12.282-0.13279 6.9992-0.80521 6.8595 15.462 3.213zm-192.31-49.08c6.0045-2.7801 10.12-7.6624 11.369-13.487 5.67-26.45-32.95-37.88-68.44-20.25-9.366 4.65-21.5 13.53-21.5 15.75 0 3.9696 28.467 9.5322 41.886 8.1846l6.7194-0.6748 2.2744-4.7906c2.1214-4.4683 3.8118-5.955 8.4969-7.4726 8.2828-2.683 4.822 8.2327-3.9117 12.338-3.9342 1.8493-4.4835 2.4652-3.8982 4.3706 2.3513 7.6547 16.622 10.844 27.007 6.036zm-20.229-14.6c3.3535-2.8816 3.5801-5.9724 0.40554-5.531-2.0976 0.29167-5.75 4.6345-5.75 6.837 0 1.694 2.5895 1.0612 5.3445-1.306zm588.12-34.105c3.4254-2.2444 3.1838-4.0304-0.8685-6.4214-5.72-3.39-5.8-12.2-0.11-12.2 3.8545 0 7.4706 3.9041 8.3202 8.9828 1.5089 9.0203 20.049 9.2247 37.593 0.41441 6.4219-3.2251 6.3386-3.1235 4.0347-4.9225-26.353-20.577-74.086-19.803-78.038 1.2658-2.1346 11.379 17.855 20.227 29.079 12.872zm5.54-9.2c0-2.0834-5.6946-7.7299-6.9889-6.9299-1.4802 0.91484-1.2347 3.7425 0.54563 6.2843 1.8242 2.6044 6.4433 3.0672 6.4433 0.64559zm-594.4-58.89c-3.8672-15.408-29.048-28.109-47.635-24.027-4.5109 0.99076-3.6341 2.8496 4.2865 9.0873 14.859 11.701 45.156 22.143 43.348 14.94zm571.34-46.503c10.729-5.4158 24.456-20.635 27.933-30.968 1.63-4.8448 0.43031-5.2999-5.8999-2.238-14.014 6.7783-25.135 18.427-28.607 29.962-2.2567 7.4986-2.0533 7.599 6.574 3.244zm-435.94-34.049c5.225-0.54117 10.625-1.3896 12-1.8853 1.375-0.49575 5.7625-1.9016 9.75-3.1241 9.6377-2.9548 9.528-3.0786-7.5-8.4651-8.11-2.566-17.23-5.507-20.25-6.536-35.19-11.961-37-12.005-37-0.892 0 16.727 14.634 23.84 43 20.902zm126.09-0.07181c13.896-1.8019 25.956-6.8591 34.794-14.59 6.4874-5.675 6.5022-5.6176-2.1347-8.2556-3.9875-1.2179-12.174-3.8217-18.193-5.7862l-10.943-3.5719-7.057 1.748c-11.684 2.894-23.74 3.1478-33.407 0.7032l-8.2769-2.0931-5.1863 3.3329c-8.5141 5.4714-11.778 7.3292-20.436 11.634-9.2807 4.6142-9.8403 5.4704-4.5 6.8849 34.824 9.2238 57.787 12.27 75.341 9.9934zm-82.09-14.232c34.79-18.239 34.48-17.995 28.25-22.211-5.4239-3.6735-9.3742-7.8589-11.387-12.065-5.4438-11.374-83.018-2.9715-93.927 10.173-1.3453 1.6209-0.09 2.2559 10.562 5.3424 16.198 4.6935 23.775 7.1346 37.5 12.081 23.299 8.3966 24.984 8.7846 29 6.6791zm127.39-12.498c11.21-33.241-3.24-48.864-32.49-60.861-14.25-4.169-46.12-2.4124-62.2 7.01-13.51 7.918-21.46 27.672-11.13 27.672 1.2769 0 9.0922 1.7488 17.367 3.8861l15.046 3.8861 10.644-5.3112c17.605-8.7846 30.749-10.424 35.596-4.4384 3.8736 4.7837 0.65896 13.417-6.686 17.957-5.0778 3.1382-5.07 3.1438 12.217 8.7502 19.151 6.211 18.652 6.1776 21.637 1.4493zm-55.6-6.852c4.59-1.132-9.99-8.306-16.79-8.259-1.9954 0.01363-12.5 6.3189-12.5 7.5029 0 2.1477 21.411 2.7007 29.294 0.7565zm-27.809-5.4128c7.1548-4.4024 5.6578-5.3605-15.485-9.9114-2.75-0.59192-5.7875-1.315-6.75-1.6069-5.6514-1.7139 1.8542 8.4107 9.3245 12.578 4.7937 2.6743 7.1567 2.4803 12.91-1.06zm44.189-1.0875c24.714-13.173 3.5348-21.273-22-8.4143-9.0418 4.5534-9.0701 4.4629 2.5846 8.2683 12.19 3.9803 12.221 3.9805 19.415 0.14602zm134.88-6.861c15.03-3.235 36.95-11.194 36.95-13.415 0-11.824-53-21.555-75.8-13.919-34.3 11.487 0.0801 35.679 38.845 27.334z"/>
</svg>
